<?xml version="1.0" encoding="UTF-8" standalone="no"?><!DOCTYPE svg PUBLIC "-//W3C//DTD SVG 1.1//EN" "http://www.w3.org/Graphics/SVG/1.1/DTD/svg11.dtd"><svg width="100%" height="100%" viewBox="0 0 1163 278" version="1.1" xmlns="http://www.w3.org/2000/svg" xmlns:xlink="http://www.w3.org/1999/xlink" xml:space="preserve" xmlns:serif="http://www.serif.com/" style="fill-rule:evenodd;clip-rule:evenodd;stroke-linejoin:round;stroke-miterlimit:2;"><rect id="Artboard2" x="0" y="0" width="1163" height="277.834" style="fill:none;"/><clipPath id="_clip1"><rect x="0" y="0" width="1163" height="277.834"/></clipPath><g clip-path="url(#_clip1)"><path d="M525.05,84.251c-28.176,-74.229 -101.811,-84.251 -170.125,-84.251l-273.999,0l-13.164,0.065l-67.762,277.769l388.14,0c50.971,0 95.511,-22.089 122.206,-60.596c26.197,-37.784 31.59,-86.165 14.811,-132.762l-0.107,-0.225Zm-194.17,6.199c26.031,19.008 41.121,38.205 48.079,48.5c-6.958,10.318 -22.048,29.51 -48.079,48.499c-33.422,24.395 -92.033,53.236 -184.071,56.14l112.871,-104.77l-115.04,-104.568c93.271,2.519 152.552,31.608 186.24,56.199m-236.749,-56.27l115.426,104.912l-112.872,104.746l-53.68,-0l51.126,-209.658Zm388.655,163.582c-20.3,29.309 -54.782,46.088 -94.599,46.088l-86.924,-0c18.131,-8.304 35.23,-18.386 51.297,-30.245c43.729,-32.521 60.532,-65.652 61.231,-67.01l3.805,-7.657l-3.805,-7.646c-0.699,-1.381 -17.502,-34.488 -61.231,-67.003c-16.067,-11.86 -33.16,-21.941 -51.285,-30.233l53.65,-0c25.895,-0 59.062,1.274 86.023,11.261c26.333,9.756 43.053,25.96 52.583,50.983c12.915,35.982 8.98,72.954 -10.745,101.462" style="fill:#fff;fill-rule:nonzero;"/><path d="M734.841,104.895c-4.605,-7.628 -10.793,-13.572 -18.569,-17.828c-8.795,-4.647 -18.148,-6.899 -28.075,-6.745c-9.252,-0.13 -18.113,1.695 -26.576,5.477c-7.889,3.574 -14.717,8.623 -20.484,15.131c-5.838,6.65 -10.247,14.153 -13.228,22.51c-3.165,8.926 -4.712,18.131 -4.641,27.608l-0,4.866c-0.095,9.542 1.499,18.788 4.795,27.738c3.105,8.368 7.675,15.824 13.714,22.368c5.939,6.454 12.903,11.456 20.893,15c8.481,3.687 17.342,5.465 26.576,5.335c9.945,0.106 19.339,-2.14 28.188,-6.739c8.582,-4.481 15.6,-11.469 21.052,-20.969c0.86,-1.518 1.648,-3.065 2.318,-4.695l-0,27.845l23.435,-0l-0,-183.562l-29.481,0l0.083,66.66Zm0.996,52.755c0.202,8.197 -1.683,15.878 -5.648,23.032c-3.58,6.372 -8.541,11.332 -14.877,14.877c-6.632,3.514 -13.691,5.221 -21.176,5.115c-7.486,-0.113 -14.498,-2.016 -21.023,-5.726c-6.585,-3.989 -11.581,-9.459 -14.983,-16.411c-3.616,-7.125 -5.417,-15.523 -5.406,-25.19c-0.189,-8.742 1.577,-17.057 5.299,-24.946c1.636,-3.467 3.728,-6.632 6.271,-9.489c2.542,-2.857 5.441,-5.287 8.683,-7.296c3.242,-2.009 6.697,-3.509 10.372,-4.504c3.668,-1.002 7.408,-1.446 11.207,-1.352c7.196,-0.065 13.994,1.547 20.407,4.843c6.3,3.265 11.332,7.93 15.083,13.999c3.871,6.093 5.803,13.472 5.803,22.131l-0.012,10.917Z" style="fill:#fff;fill-rule:nonzero;"/><path d="M776.725,84.661l0,22.872l19.903,0l-0,114.253l29.48,-0l0,-137.125l-49.383,0Z" style="fill:#fff;fill-rule:nonzero;"/><path d="M806.203,67.745c6.211,-0 10.804,-1.594 13.726,-4.831c3.148,-3.568 4.617,-7.734 4.416,-12.505c0.136,-4.7 -1.334,-8.814 -4.416,-12.334c-2.922,-3.307 -7.515,-4.973 -13.726,-4.973c-6.212,0 -10.526,1.666 -13.472,4.973c-3.088,3.52 -4.552,7.634 -4.398,12.334c-0.207,4.759 1.257,8.914 4.398,12.47c2.946,3.272 7.426,4.866 13.472,4.866" style="fill:#fff;fill-rule:nonzero;"/><path d="M959.65,111.366c-0.397,-0.877 -0.824,-1.76 -1.263,-2.59c-4.575,-9.092 -11.249,-16.163 -20.021,-21.206c-8.475,-4.849 -18.255,-7.261 -29.35,-7.249c-9.109,-0.107 -17.881,1.583 -26.309,5.079c-7.871,3.302 -14.717,8.102 -20.531,14.397c-5.838,6.359 -10.253,13.608 -13.229,21.746c-3.188,8.7 -4.741,17.685 -4.646,26.961l-0,4.842c-0.06,9.216 1.452,18.16 4.528,26.831c2.922,8.227 7.201,15.647 12.837,22.273c5.548,6.473 12.186,11.475 19.903,15.007c8.179,3.693 16.749,5.477 25.705,5.358c9.886,0.184 19.167,-2.116 27.856,-6.893c8.493,-4.86 15.037,-11.64 19.636,-20.341l0.391,-0.723l0,12.168c0,10.159 -1.642,18.427 -4.919,24.804c-3.479,6.656 -8.683,11.368 -15.612,14.13c-7.147,3.052 -16.595,4.575 -28.348,4.569c-5.802,0 -12.209,-0.278 -19.013,-0.877c-6.798,-0.599 -13.229,-1.328 -19.275,-2.157l0,25.165c5.726,0.854 11.854,1.535 18.398,2.039c6.555,0.533 13.009,0.765 19.392,0.765c18.297,-0 33.114,-2.365 44.458,-7.107c11.344,-4.735 19.653,-12.245 24.928,-22.528c5.299,-10.253 7.948,-23.695 7.948,-40.314l0,-120.855l-23.464,-0l-0,26.706Zm-4.795,43.456c-0,8.641 -1.784,16.086 -5.405,22.273c-3.533,6.158 -8.405,10.906 -14.622,14.242c-6.342,3.385 -13.099,5.038 -20.264,4.961c-7.509,0.143 -14.521,-1.677 -21.029,-5.464c-6.353,-3.829 -11.178,-9.092 -14.485,-15.778c-3.526,-6.869 -5.293,-14.971 -5.293,-24.3c-0.189,-8.434 1.529,-16.441 5.163,-24.033c3.283,-6.769 8.114,-12.115 14.485,-16.039c6.597,-3.976 13.733,-5.885 21.414,-5.731c6.905,-0.047 13.454,1.476 19.647,4.57c6.117,3.094 11.024,7.545 14.717,13.365c3.793,5.862 5.672,13.015 5.672,21.503l-0,10.431Z" style="fill:#fff;fill-rule:nonzero;"/><path d="M1024.95,67.745c6.223,-0 10.793,-1.594 13.727,-4.831c3.135,-3.568 4.605,-7.74 4.404,-12.505c0.124,-4.683 -1.34,-8.784 -4.404,-12.299c-2.928,-3.307 -7.504,-4.966 -13.727,-4.972c-6.033,-0 -10.538,1.665 -13.46,4.972c-3.082,3.509 -4.557,7.611 -4.421,12.299c-0.202,4.759 1.274,8.92 4.421,12.47c2.922,3.272 7.462,4.866 13.46,4.866" style="fill:#fff;fill-rule:nonzero;"/><path d="M995.487,84.661l0,22.872l19.903,0l-0,114.253l29.468,-0l0,-137.125l-49.371,0Z" style="fill:#fff;fill-rule:nonzero;"/><path d="M1126.79,197.354c-6.893,-0 -12.227,-1.903 -16.003,-5.708c-3.775,-3.805 -5.66,-9.275 -5.654,-16.411l-0,-67.703l33.842,-0l0,-22.872l-33.842,0l-0,-46.419l-27.957,-0l-0,46.419l-19.926,0l-0,22.872l19.902,-0l0,65.148c0,12.731 1.968,22.825 5.909,30.281c3.835,7.515 9.667,12.772 17.502,15.765c7.735,3.053 17.23,4.588 28.479,4.594l20.388,-0l0,-25.966l-22.64,-0Z" style="fill:#fff;fill-rule:nonzero;"/></g></svg>