<?xml version="1.0" encoding="UTF-8" standalone="no"?><!DOCTYPE svg PUBLIC "-//W3C//DTD SVG 1.1//EN" "http://www.w3.org/Graphics/SVG/1.1/DTD/svg11.dtd"><svg width="100%" height="100%" viewBox="0 0 809 196" version="1.1" xmlns="http://www.w3.org/2000/svg" xmlns:xlink="http://www.w3.org/1999/xlink" xml:space="preserve" xmlns:serif="http://www.serif.com/" style="fill-rule:evenodd;clip-rule:evenodd;stroke-linejoin:round;stroke-miterlimit:2;"><g id="Layer-2" serif:id="Layer 2"><rect x="-277.652" y="-3082.87" width="2480.31" height="3507.88" style="fill:#090f0e;"/></g><g id="Layer-1" serif:id="Layer 1"><path d="M369.117,59.229c-19.809,-52.183 -71.575,-59.229 -119.6,-59.229l-192.625,0l-9.254,0.046l-47.638,195.275l272.867,-0c35.833,-0 67.145,-15.529 85.912,-42.6c18.417,-26.563 22.209,-60.575 10.413,-93.333l-0.075,-0.159Zm-136.505,4.358c18.3,13.363 28.909,26.859 33.801,34.096c-4.892,7.255 -15.501,20.746 -33.801,34.096c-23.495,17.15 -64.7,37.425 -129.404,39.467l79.35,-73.654l-80.875,-73.513c65.571,1.771 107.246,22.221 130.929,39.509m-166.437,-39.559l81.146,73.754l-79.35,73.638l-37.738,-0l35.942,-147.392Zm273.229,115c-14.271,20.604 -38.512,32.4 -66.504,32.4l-61.108,0c12.745,-5.837 24.766,-12.925 36.062,-21.262c30.742,-22.863 42.554,-46.154 43.046,-47.109l2.675,-5.383l-2.675,-5.375c-0.492,-0.971 -12.304,-24.246 -43.046,-47.104c-11.296,-8.338 -23.312,-15.425 -36.054,-21.254l37.717,-0c18.204,-0 41.521,0.896 60.475,7.916c18.512,6.859 30.266,18.25 36.966,35.842c9.079,25.296 6.313,51.288 -7.554,71.329" style="fill:#fff;fill-rule:nonzero;"/><path d="M516.602,73.742c-3.237,-5.362 -7.587,-9.541 -13.054,-12.533c-6.183,-3.267 -12.758,-4.85 -19.738,-4.742c-6.504,-0.091 -12.733,1.192 -18.683,3.85c-5.546,2.513 -10.346,6.063 -14.4,10.638c-4.104,4.675 -7.204,9.95 -9.3,15.825c-2.225,6.275 -3.312,12.746 -3.262,19.408l-0,3.421c-0.067,6.708 1.054,13.208 3.37,19.5c2.184,5.883 5.396,11.125 9.642,15.725c4.175,4.538 9.071,8.054 14.688,10.546c5.962,2.592 12.191,3.842 18.683,3.75c6.992,0.075 13.596,-1.504 19.817,-4.738c6.033,-3.15 10.966,-8.062 14.8,-14.741c0.604,-1.067 1.158,-2.154 1.629,-3.3l-0,19.575l16.475,-0l-0,-129.046l-20.725,-0l0.058,46.862Zm0.7,37.088c0.142,5.762 -1.183,11.162 -3.971,16.192c-2.516,4.479 -6.004,7.966 -10.458,10.458c-4.663,2.471 -9.625,3.671 -14.888,3.596c-5.262,-0.079 -10.191,-1.417 -14.779,-4.025c-4.629,-2.804 -8.141,-6.65 -10.533,-11.538c-2.542,-5.008 -3.808,-10.912 -3.8,-17.708c-0.133,-6.146 1.108,-11.992 3.725,-17.538c1.15,-2.437 2.621,-4.662 4.408,-6.67c1.788,-2.009 3.825,-3.717 6.104,-5.13c2.28,-1.412 4.709,-2.466 7.292,-3.166c2.579,-0.704 5.208,-1.017 7.879,-0.95c5.059,-0.046 9.838,1.087 14.346,3.404c4.429,2.296 7.967,5.575 10.604,9.842c2.721,4.283 4.079,9.47 4.079,15.558l-0.008,7.675Z" style="fill:#fff;fill-rule:nonzero;"/><path d="M546.047,59.518l0,16.079l13.992,0l-0,80.321l20.725,-0l-0,-96.4l-34.717,-0Z" style="fill:#fff;fill-rule:nonzero;"/><path d="M566.77,47.625c4.367,0 7.596,-1.12 9.65,-3.395c2.213,-2.509 3.246,-5.438 3.104,-8.792c0.096,-3.304 -0.937,-6.196 -3.104,-8.671c-2.054,-2.325 -5.283,-3.496 -9.65,-3.496c-4.367,0 -7.4,1.171 -9.471,3.496c-2.171,2.475 -3.2,5.367 -3.091,8.671c-0.146,3.346 0.883,6.267 3.091,8.767c2.071,2.3 5.221,3.42 9.471,3.42" style="fill:#fff;fill-rule:nonzero;"/><path d="M674.645,78.292c-0.279,-0.617 -0.579,-1.238 -0.887,-1.821c-3.217,-6.392 -7.909,-11.363 -14.075,-14.908c-5.959,-3.409 -12.834,-5.105 -20.634,-5.096c-6.404,-0.075 -12.571,1.112 -18.496,3.571c-5.533,2.32 -10.345,5.695 -14.433,10.12c-4.104,4.471 -7.208,9.567 -9.3,15.288c-2.242,6.117 -3.333,12.433 -3.267,18.954l0,3.404c-0.041,6.479 1.021,12.767 3.184,18.863c2.054,5.783 5.062,11 9.025,15.658c3.9,4.55 8.566,8.067 13.991,10.55c5.75,2.596 11.775,3.85 18.071,3.767c6.95,0.129 13.475,-1.488 19.584,-4.846c5.97,-3.417 10.57,-8.183 13.804,-14.3l0.275,-0.508l-0,8.554c-0,7.141 -1.154,12.954 -3.459,17.437c-2.445,4.679 -6.104,7.992 -10.975,9.934c-5.025,2.145 -11.666,3.216 -19.929,3.212c-4.079,0 -8.583,-0.196 -13.366,-0.617c-4.78,-0.42 -9.3,-0.933 -13.55,-1.516l-0,17.691c4.025,0.6 8.333,1.08 12.933,1.434c4.608,0.375 9.146,0.537 13.633,0.537c12.863,0 23.279,-1.662 31.254,-4.996c7.975,-3.329 13.817,-8.608 17.525,-15.837c3.725,-7.208 5.588,-16.658 5.588,-28.342l-0,-84.962l-16.496,-0l0,18.775Zm-3.371,30.55c0,6.075 -1.254,11.308 -3.8,15.658c-2.483,4.329 -5.908,7.667 -10.279,10.013c-4.458,2.379 -9.208,3.541 -14.246,3.487c-5.279,0.1 -10.208,-1.179 -14.783,-3.842c-4.467,-2.691 -7.858,-6.391 -10.183,-11.091c-2.48,-4.829 -3.721,-10.525 -3.721,-17.084c-0.134,-5.929 1.075,-11.558 3.629,-16.895c2.308,-4.759 5.704,-8.517 10.183,-11.275c4.638,-2.796 9.654,-4.138 15.054,-4.03c4.855,-0.033 9.459,1.038 13.813,3.213c4.3,2.175 7.75,5.304 10.346,9.396c2.666,4.121 3.987,9.15 3.987,15.116l0,7.334Z" style="fill:#fff;fill-rule:nonzero;"/><path d="M720.554,47.625c4.375,0 7.588,-1.12 9.65,-3.395c2.204,-2.509 3.238,-5.442 3.096,-8.792c0.088,-3.292 -0.942,-6.175 -3.096,-8.646c-2.058,-2.325 -5.275,-3.492 -9.65,-3.496c-4.241,0 -7.408,1.171 -9.462,3.496c-2.167,2.467 -3.204,5.35 -3.109,8.646c-0.141,3.346 0.896,6.271 3.109,8.767c2.054,2.3 5.246,3.42 9.462,3.42" style="fill:#fff;fill-rule:nonzero;"/><path d="M699.839,59.518l0,16.079l13.992,0l-0,80.321l20.717,-0l-0,-96.4l-34.709,-0Z" style="fill:#fff;fill-rule:nonzero;"/><path d="M792.147,138.742c-4.846,0 -8.596,-1.337 -11.25,-4.012c-2.654,-2.675 -3.979,-6.521 -3.975,-11.538l0,-47.596l23.792,0l-0,-16.079l-23.792,0l0,-32.633l-19.654,-0l-0,32.633l-14.008,0l-0,16.079l13.991,0l0,45.8c0,8.95 1.384,16.046 4.154,21.288c2.696,5.283 6.796,8.979 12.305,11.083c5.437,2.146 12.112,3.225 20.02,3.229l14.334,0l-0,-18.254l-15.917,0Z" style="fill:#fff;fill-rule:nonzero;"/><path d="M1697.08,301.049l-0,-8.334l-1823.31,0l0.001,-408.333l2037.5,0l0,-207.204l-347.949,-0l-0,-389.242l-226.546,0l-0,-109.112l-8.334,-0l0,117.446l226.546,-0l0,389.241l347.95,0l0,190.538l-2037.5,-0l0,425l1831.64,-0Z" style="fill:#fff;fill-rule:nonzero;"/></g></svg>